<?xml version="1.0" standalone="no"?>
<!DOCTYPE svg PUBLIC "-//W3C//DTD SVG 20010904//EN"
 "http://www.w3.org/TR/2001/REC-SVG-20010904/DTD/svg10.dtd">
<svg version="1.0" xmlns="http://www.w3.org/2000/svg"
 width="1000.000000pt" height="563.000000pt" viewBox="0 0 1000.000000 563.000000"
 preserveAspectRatio="xMidYMid meet">

<g transform="translate(0.000000,563.000000) scale(0.100000,-0.100000)"
fill="#000000" stroke="none">
<path d="M0 2815 l0 -2815 2640 0 2640 0 -19 38 c-10 20 -21 46 -23 57 -1 11
-10 25 -18 32 -8 6 -12 15 -7 19 4 4 7 2 7 -4 0 -7 7 -12 15 -12 14 0 19 -11
16 -36 -2 -16 47 -36 52 -21 2 7 8 9 12 4 5 -4 3 -18 -4 -31 -8 -13 -10 -29
-7 -35 5 -8 663 -11 2352 -11 l2344 0 0 2815 0 2815 -5000 0 -5000 0 0 -2815z
m7038 2270 c210 -29 246 -37 273 -61 25 -23 24 -51 -5 -126 -14 -35 -35 -97
-47 -138 -17 -57 -31 -83 -58 -109 l-35 -34 -83 7 -84 6 -70 -66 c-38 -36 -75
-64 -82 -62 -7 2 -28 37 -48 77 -20 40 -42 77 -50 81 -8 4 -40 11 -72 15 -98
11 -103 29 -56 204 33 123 57 179 91 211 30 27 93 26 326 -5z m-503 -544 c22
-5 31 -9 20 -10 -11 -1 -16 -5 -10 -9 11 -8 14 -84 3 -92 -4 -3 -10 -24 -14
-47 l-6 -42 38 -4 c22 -2 -397 -4 -930 -5 l-968 -2 4 70 c3 56 8 74 28 96 51
55 17 53 940 53 470 0 873 -4 895 -8z m-2268 -126 c3 -9 -3 -25 -12 -35 -10
-11 -15 -20 -12 -20 8 0 -22 -102 -34 -114 -5 -6 -9 -22 -9 -37 0 -15 -7 -32
-16 -39 -8 -7 -14 -23 -12 -36 2 -12 -5 -31 -16 -42 -10 -12 -19 -35 -20 -53
-1 -18 -8 -35 -14 -37 -7 -2 -12 -19 -12 -37 0 -30 -13 -45 -41 -45 -15 0 -11
30 21 154 36 143 64 234 91 304 19 46 25 52 50 52 17 0 32 -6 36 -15z m-257
-80 c13 -15 6 -35 -13 -35 -7 0 -38 -20 -69 -45 -63 -49 -74 -79 -35 -94 12
-5 44 -30 71 -55 39 -36 47 -49 38 -58 -17 -17 -71 13 -139 77 -43 42 -51 55
-46 75 9 39 48 85 99 119 52 34 75 38 94 16z m420 -25 c34 -25 96 -91 103
-111 4 -11 -12 -35 -47 -71 -86 -88 -146 -122 -146 -82 0 15 22 39 89 95 17
15 31 32 31 38 0 14 -57 73 -92 96 -30 19 -35 34 -16 53 14 14 42 7 78 -18z
m987 -16 c27 -7 39 -56 24 -97 l-11 -27 -362 2 -363 3 -3 48 c-2 27 2 55 9 63
9 12 69 14 348 14 185 0 346 -3 358 -6z m2563 -64 c0 -56 -3 -72 -16 -77 -23
-9 -34 15 -34 78 0 60 4 69 32 69 16 0 18 -9 18 -70z m-620 4 c0 -25 -19 -35
-48 -27 -23 6 -28 53 -6 53 8 0 14 5 14 10 0 6 8 5 20 -2 11 -7 20 -22 20 -34z
m-550 6 c0 -16 -4 -30 -10 -30 -11 0 -14 43 -3 53 11 12 13 8 13 -23z m40 0
c0 -16 -4 -30 -10 -30 -5 0 -10 14 -10 30 0 17 5 30 10 30 6 0 10 -13 10 -30z
m130 0 c0 -27 -3 -30 -30 -30 -27 0 -30 3 -30 30 0 27 3 30 30 30 27 0 30 -3
30 -30z m125 0 c0 -18 -6 -26 -23 -28 -13 -2 -25 3 -28 12 -10 26 4 48 28 44
17 -2 23 -10 23 -28z m111 18 c4 -7 9 -22 10 -34 2 -17 -2 -20 -22 -16 -34 6
-50 28 -34 47 15 18 36 19 46 3z m-504 -9 c21 -11 21 -12 -3 -25 -34 -19 -39
-17 -39 11 0 27 10 31 42 14z m1455 -14 c7 -20 -64 -128 -80 -122 -23 7 -18
38 13 87 32 51 56 63 67 35z m-369 -49 c33 -46 40 -70 21 -81 -20 -13 -107 93
-94 114 13 23 43 9 73 -33z m235 -100 c94 -39 134 -167 77 -243 -23 -31 -51
-138 -43 -160 4 -9 -4 -13 -23 -13 l-29 0 34 -17 34 -17 -32 -11 -32 -10 33
-14 33 -14 -68 -8 c-62 -7 -103 -19 -65 -19 8 0 23 -9 33 -20 18 -20 17 -20
-43 -20 -55 0 -62 2 -62 19 0 11 8 22 18 24 9 3 1 5 -19 6 l-36 1 3 78 c2 69
-1 85 -32 153 -37 84 -44 151 -20 197 18 35 64 78 96 91 36 14 106 13 143 -3z
m-2925 -31 c-1 -23 3 -39 12 -45 11 -7 12 -13 2 -35 -9 -19 -14 -121 -18 -318
-3 -160 -7 -293 -10 -296 -2 -2 -4 131 -4 297 0 190 -4 303 -10 307 -5 3 -10
15 -10 26 0 10 5 19 10 19 6 0 10 18 10 40 0 22 5 40 11 40 6 0 9 -15 7 -35z
m2592 2 c45 -22 59 -49 28 -55 -30 -6 -118 39 -118 59 0 26 33 24 90 -4z m608
2 c3 -17 -83 -59 -119 -59 -38 0 -19 31 34 55 58 27 80 28 85 4z m-3318 -74
c0 -8 -4 -17 -10 -20 -6 -4 -10 5 -10 20 0 15 4 24 10 20 6 -3 10 -12 10 -20z
m760 1 c0 -20 0 -20 14 0 11 14 17 16 26 7 17 -16 5 -30 -25 -30 -16 0 -25 5
-25 15 0 13 -3 12 -14 -4 -12 -15 -17 -16 -27 -7 -10 10 -10 15 0 27 18 21 51
16 51 -8z m121 9 c31 -6 34 -12 9 -20 -14 -4 -25 -2 -30 5 -6 9 -9 9 -13 -1
-3 -8 -6 -4 -6 9 -1 13 3 20 9 17 5 -3 20 -8 31 -10z m-254 -9 c0 -8 -6 -12
-15 -9 -11 5 -11 7 0 14 7 5 13 9 14 9 0 0 1 -6 1 -14z m36 0 c6 -14 0 -26
-13 -26 -3 0 -6 9 -7 20 -2 23 12 27 20 6z m33 -6 c0 -11 -3 -20 -7 -20 -4 0
-9 9 -12 20 -3 12 0 20 7 20 6 0 12 -9 12 -20z m-699 -80 c-1 -11 -8 -20 -16
-20 -12 0 -12 3 -3 12 15 15 16 31 0 22 -7 -4 -8 -3 -4 5 10 16 25 4 23 -19z
m3780 -51 c12 -42 16 -46 38 -41 14 2 30 13 36 23 5 11 18 19 28 19 10 0 25 9
32 20 20 27 64 36 73 15 8 -22 -1 -35 -26 -35 -11 0 -22 -8 -25 -19 -3 -11
-17 -21 -34 -25 -17 -3 -29 -12 -29 -21 0 -8 -7 -15 -16 -15 -9 0 -14 -7 -12
-17 2 -10 11 -17 20 -15 9 1 19 -2 23 -8 3 -5 15 -10 26 -10 10 0 19 -4 19
-10 0 -5 10 -10 22 -10 54 0 -13 -21 -222 -69 -249 -57 -240 -55 -240 -41 0 6
7 10 16 10 10 0 14 6 10 15 -3 9 0 15 9 15 8 0 15 7 15 15 0 9 7 18 15 21 8 4
15 12 15 20 0 8 7 14 15 14 9 0 12 6 9 15 -4 9 0 15 10 15 9 0 16 7 16 15 0 9
7 18 15 21 8 4 15 12 15 20 0 8 5 14 10 14 6 0 10 5 10 10 0 6 14 24 30 40 17
17 28 30 25 30 -4 0 -3 5 0 11 15 23 40 2 52 -42z m-1038 17 c8 -10 8 -16 -1
-24 -18 -14 -127 -37 -135 -28 -15 14 15 41 58 52 59 16 65 16 78 0z m534 -12
c51 -17 65 -30 49 -46 -7 -7 -26 -6 -62 3 -53 14 -76 31 -65 49 9 14 23 13 78
-6z m-3275 -40 c-4 -24 -23 -19 -21 6 1 33 3 34 14 23 6 -6 9 -19 7 -29z m598
2 c0 -19 -4 -32 -8 -30 -14 9 -8 64 7 64 0 0 1 -15 1 -34z m33 -17 c-13 -25
-14 -24 -14 16 0 30 2 33 12 19 9 -12 9 -22 2 -35z m-109 9 c0 -19 -16 -5 -17
14 -2 18 0 20 7 8 5 -8 10 -18 10 -22z m180 5 c0 -21 -3 -24 -9 -14 -5 8 -7
20 -4 28 8 21 13 15 13 -14z m-210 2 c0 -10 -11 -15 -35 -15 -24 0 -35 5 -35
15 0 10 11 15 35 15 24 0 35 -5 35 -15z m70 -2 c0 -14 -2 -15 -9 -4 -7 11 -9
11 -14 0 -4 -10 -6 -9 -6 4 -1 9 6 17 14 17 8 0 15 -8 15 -17z m1420 2 c0 -8
7 -15 15 -15 8 0 15 -6 15 -14 0 -23 31 -29 37 -6 3 11 12 20 19 20 8 0 14 7
14 16 0 12 10 14 50 12 57 -3 72 -21 23 -26 -21 -2 -33 -9 -33 -18 0 -8 -9
-14 -20 -14 -13 0 -20 -7 -20 -20 0 -11 -7 -20 -15 -20 -12 0 -15 -16 -15 -85
0 -69 3 -85 15 -85 10 0 15 -11 15 -35 0 -24 -5 -35 -15 -35 -12 0 -15 -17
-15 -90 0 -73 3 -90 15 -90 8 0 15 -7 15 -15 0 -8 7 -15 15 -15 8 0 19 -9 25
-20 6 -11 21 -20 35 -20 13 0 27 -4 30 -10 4 -6 -15 -10 -49 -10 -43 0 -56 3
-56 15 0 8 -6 15 -14 15 -7 0 -16 9 -19 20 -3 11 -10 20 -17 20 -7 0 -14 -9
-17 -20 -3 -11 -12 -20 -19 -20 -8 0 -14 -7 -14 -15 0 -11 -12 -15 -50 -15
-27 0 -50 5 -50 10 0 6 14 10 31 10 22 0 32 5 36 20 3 11 12 20 19 20 8 0 14
7 14 15 0 8 7 15 15 15 12 0 15 17 15 90 0 73 -3 90 -15 90 -10 0 -15 10 -15
30 0 18 6 33 15 36 12 5 15 25 15 89 0 64 -3 84 -15 89 -8 3 -15 12 -15 21 0
8 -9 15 -20 15 -11 0 -20 7 -20 15 0 10 -10 15 -29 15 -30 0 -46 12 -34 24 3
3 28 6 55 6 36 0 48 -4 48 -15z m-3313 -32 c-88 -2 -155 -7 -152 -12 3 -5 -5
-7 -17 -4 -19 4 -20 3 -8 -6 18 -13 1 -14 -20 -1 -13 8 -13 9 0 14 8 2 22 7
30 9 8 3 85 5 170 4 l155 -1 -158 -3z m278 -3 c-4 -6 -1 -17 5 -25 12 -15 7
-45 -7 -45 -4 0 -18 18 -31 40 l-23 40 31 0 c19 0 29 -4 25 -10z m-504 -33
c-6 -8 -9 -16 -6 -19 3 -2 -2 -5 -10 -5 -13 0 -13 3 2 19 19 21 31 25 14 5z
m1329 -2 c7 -8 10 -15 6 -15 -3 0 -8 0 -11 0 -3 0 -5 3 -4 6 0 4 -5 11 -13 15
-8 5 -9 9 -2 9 6 0 17 -7 24 -15z m228 -20 c-2 -10 -7 -12 -17 -5 -13 7 -13
11 -1 25 15 18 24 8 18 -20z m-1468 21 c0 -2 -7 -7 -16 -10 -8 -3 -12 -2 -9 4
6 10 25 14 25 6z m2076 -7 c8 -14 -11 -33 -25 -25 -11 7 -4 36 9 36 5 0 12 -5
16 -11z m-1896 -33 c8 -11 10 -17 3 -13 -7 5 -13 -1 -15 -14 -4 -30 -33 -47
-55 -33 -37 23 -22 67 21 67 14 0 26 4 26 10 0 6 1 8 3 6 1 -2 9 -13 17 -23z
m-101 -12 c-5 -6 -5 -15 -1 -20 4 -5 -4 0 -17 11 -21 17 -24 18 -18 3 12 -33
-39 -63 -60 -35 -15 19 -24 49 -13 42 6 -3 10 -2 10 4 0 6 22 10 54 8 38 -1
52 -5 45 -13z m199 4 c16 -16 15 -23 -4 -42 -19 -20 -29 -20 -48 0 -12 12 -13
20 -6 35 12 21 40 25 58 7z m1190 -43 c1 -18 -3 -25 -16 -24 -12 0 -13 2 -3 6
10 4 11 7 1 13 -7 4 -9 13 -6 19 12 18 22 12 24 -14z m609 -8 c-2 -7 -11 -13
-20 -15 -12 -3 -17 4 -17 23 0 23 2 25 21 15 11 -6 18 -17 16 -23z m-800 -19
c-3 -8 -6 -5 -6 6 -1 11 2 17 5 13 3 -3 4 -12 1 -19z m814 -65 c-10 -17 -10
-16 -11 3 0 23 13 41 18 25 2 -6 -1 -18 -7 -28z m60 5 c-3 -21 -6 -26 -9 -15
-3 17 3 47 11 47 2 0 1 -15 -2 -32z m227 -4 c-3 -14 -5 -12 -10 9 -3 19 -2 25
4 19 6 -6 8 -18 6 -28z m-916 -16 c-13 -13 -26 8 -17 30 6 16 7 16 17 -1 7
-13 7 -22 0 -29z m601 17 c-7 -21 -13 -19 -13 6 0 11 4 18 10 14 5 -3 7 -12 3
-20z m382 1 c0 -15 -4 -21 -9 -16 -5 5 -6 16 -3 24 9 22 12 20 12 -8z m265 -1
c0 -8 -3 -16 -7 -18 -5 -3 -8 5 -8 18 0 13 3 21 8 18 4 -2 7 -10 7 -18z m489
12 c12 -15 5 -27 -16 -27 -7 0 -13 9 -13 20 0 23 13 26 29 7z m461 -18 c0 -5
-8 -9 -17 -9 -15 0 -16 2 -3 10 10 6 11 10 3 10 -7 0 -13 5 -13 11 0 8 5 8 15
-1 8 -7 15 -16 15 -21z m17 -6 c-3 -10 -5 -4 -5 12 0 17 2 24 5 18 2 -7 2 -21
0 -30z m43 12 c0 -8 -3 -16 -7 -18 -5 -3 -8 5 -8 18 0 13 3 21 8 18 4 -2 7
-10 7 -18z m-1763 0 c-8 -9 -16 -10 -25 -3 -7 6 -15 8 -19 4 -3 -3 -1 -6 6 -6
7 0 9 -4 6 -10 -10 -17 -25 -11 -25 9 0 15 7 19 34 19 28 0 33 -3 23 -13z m83
-2 c0 -14 -2 -15 -9 -4 -7 11 -9 11 -14 0 -4 -10 -6 -9 -6 4 -1 9 6 17 14 17
8 0 15 -8 15 -17z m207 2 c0 -8 -6 -15 -12 -15 -6 0 -12 7 -12 15 0 8 6 15 12
15 6 0 12 -7 12 -15z m96 8 c-7 -2 -13 -9 -13 -14 0 -6 6 -7 13 -3 8 5 9 4 2
-4 -13 -15 -55 -4 -55 14 0 9 11 14 33 13 17 0 26 -3 20 -6z m77 -2 c0 -12
-20 -25 -27 -18 -7 7 6 27 18 27 5 0 9 -4 9 -9z m360 -1 c0 -5 -4 -10 -10 -10
-5 0 -10 5 -10 10 0 6 5 10 10 10 6 0 10 -4 10 -10z m320 -5 c0 -8 -7 -15 -15
-15 -8 0 -15 7 -15 15 0 8 7 15 15 15 8 0 15 -7 15 -15z m186 6 c-4 -5 -1 -12
4 -14 6 -3 5 -4 -2 -3 -15 3 -23 26 -8 26 6 0 9 -4 6 -9z m114 -8 c0 -15 -2
-15 -9 -4 -7 11 -10 11 -12 -3 -4 -15 -6 -15 -21 4 -17 19 -17 20 12 20 22 0
30 -5 30 -17z m-2460 -89 c0 -30 -3 -34 -25 -34 -22 0 -25 4 -25 33 0 40 5 46
31 40 14 -4 19 -14 19 -39z m140 0 c0 -25 -19 -35 -48 -27 -23 6 -28 53 -6 53
8 0 14 5 14 10 0 6 8 5 20 -2 11 -7 20 -22 20 -34z m-1090 27 c0 -5 -6 -12
-12 -14 -10 -4 -9 -8 2 -16 8 -5 12 -12 9 -15 -3 -3 -14 0 -24 8 -16 12 -17
16 -6 30 15 18 31 21 31 7z m816 -3 c4 -7 9 -22 10 -34 2 -17 -2 -20 -22 -16
-30 5 -46 25 -38 46 7 19 39 21 50 4z m391 -20 c-2 -28 -6 -33 -29 -36 -26 -3
-28 -1 -28 32 0 33 2 36 29 36 27 0 29 -3 28 -32z m271 7 c-1 -14 -8 -25 -15
-25 -16 0 -17 12 -1 28 8 8 8 12 1 12 -6 0 -17 -10 -26 -22 l-15 -23 2 27 c1
23 6 28 28 28 23 0 27 -4 26 -25z m623 -2 c-8 -15 -10 -15 -11 -2 0 17 10 32
18 25 2 -3 -1 -13 -7 -23z m64 -2 c0 -16 -3 -27 -7 -24 -5 2 -8 15 -8 29 0 13
3 24 8 24 4 0 7 -13 7 -29z m110 15 c9 4 13 -1 12 -14 -1 -13 -8 -19 -24 -19
-30 0 -38 13 -22 34 8 9 15 11 17 5 2 -6 10 -8 17 -6z m115 -11 c0 -14 -3 -25
-7 -25 -5 0 -8 11 -8 25 0 14 3 25 8 25 4 0 7 -11 7 -25z m97 -12 c-3 -10 -5
-4 -5 12 0 17 2 24 5 18 2 -7 2 -21 0 -30z m255 -9 c-6 -12 -9 -7 -9 16 0 23
3 28 9 16 5 -9 5 -23 0 -32z m498 14 c0 -26 -24 -18 -28 10 -3 16 1 20 12 16
9 -3 16 -15 16 -26z m486 -7 c-13 -20 -26 -11 -26 16 0 25 1 26 16 11 9 -9 13
-21 10 -27z m28 23 c3 -8 2 -12 -4 -9 -6 3 -10 10 -10 16 0 14 7 11 14 -7z
m36 -14 c0 -10 -3 -21 -7 -23 -5 -3 -8 8 -8 23 0 15 3 26 8 23 4 -2 7 -13 7
-23z m-1857 13 c-7 -2 -13 -9 -13 -14 0 -6 5 -7 11 -3 7 4 10 1 7 -7 -2 -7 15
-26 41 -43 111 -76 158 -203 116 -320 -8 -22 -11 -44 -8 -50 3 -6 3 -8 -2 -4
-4 4 -18 -7 -30 -25 -17 -24 -20 -37 -13 -50 5 -10 7 -21 4 -24 -3 -3 -9 4
-13 16 l-8 21 -39 -26 c-21 -15 -62 -33 -90 -40 -210 -58 -413 153 -341 355 8
22 11 41 7 41 -15 0 86 94 128 118 40 24 56 27 132 27 74 0 88 3 92 18 2 9 10
17 18 16 10 0 10 -2 1 -6z m37 -8 c-7 -9 -15 -13 -17 -11 -7 7 7 26 19 26 6 0
6 -6 -2 -15z m40 -17 c0 -5 -4 -8 -10 -8 -5 0 -10 10 -10 23 0 18 2 19 10 7 5
-8 10 -18 10 -22z m66 11 c0 -24 -16 -25 -17 -1 0 14 -2 14 -9 -3 l-9 -20 0
20 c-1 17 -3 17 -11 5 -8 -13 -10 -13 -10 1 0 11 9 16 28 17 21 0 28 -4 28
-19z m284 13 c0 -4 -4 -13 -9 -21 -6 -9 -11 -10 -15 -2 -4 6 -11 9 -16 6 -5
-3 -12 0 -16 6 -4 8 -3 9 4 5 7 -4 12 -3 12 1 0 5 9 9 20 10 11 1 20 -1 20 -5z
m105 -12 c0 -10 -10 -15 -28 -15 -30 -1 -42 9 -32 24 9 16 60 7 60 -9z m673
-3 c2 -10 -3 -17 -12 -17 -10 0 -16 9 -16 21 0 24 23 21 28 -4z m229 10 c3 -4
1 -7 -6 -7 -7 0 -10 -3 -8 -7 3 -5 -6 -9 -20 -10 -19 -1 -22 1 -12 8 12 8 12
10 -1 19 -11 7 -8 8 13 6 15 -1 30 -6 34 -9z m253 -7 c0 -11 -4 -20 -8 -20 -4
0 -8 9 -8 20 0 11 4 20 8 20 4 0 8 -9 8 -20z m-800 6 c0 -3 -4 -8 -10 -11 -5
-3 -10 -1 -10 4 0 6 5 11 10 11 6 0 10 -2 10 -4z m-1340 -87 c0 -10 -7 -19
-15 -19 -15 0 -21 31 -9 43 11 10 24 -3 24 -24z m-1484 -72 c16 22 18 10 3
-19 -11 -21 -12 -21 -25 -3 -8 10 -14 24 -14 29 0 6 5 3 11 -7 10 -18 11 -18
25 0z m1484 -7 c0 -11 -5 -20 -11 -20 -6 0 -8 7 -5 16 3 8 2 12 -4 9 -6 -3
-10 -1 -10 4 0 6 7 11 15 11 8 0 15 -9 15 -20z m2675 -14 c18 -13 15 -14 -26
-9 -34 4 -50 1 -62 -11 -9 -9 -18 -12 -22 -7 -8 14 35 41 65 41 15 0 35 -6 45
-14z m971 -40 c9 -25 -70 -231 -90 -234 -10 -2 -22 0 -27 5 -9 9 36 210 52
230 15 17 58 17 65 -1z m-3687 -33 c0 -25 -1 -26 -9 -8 -12 27 -12 35 0 35 6
0 10 -12 9 -27z m41 2 c0 -26 -14 -33 -25 -15 -9 14 1 40 15 40 5 0 10 -11 10
-25z m2870 -22 c12 -15 12 -16 0 -5 -24 21 -66 15 -85 -14 -16 -25 -16 -27 6
-50 29 -31 17 -31 -24 0 -114 86 -290 35 -338 -99 -7 -19 -17 -35 -22 -35 -4
0 -6 4 -3 9 10 15 -89 -1 -101 -17 -12 -14 -13 -14 -13 1 0 23 28 35 83 38 40
2 46 5 41 21 -3 12 9 33 40 66 l46 49 -28 26 c-16 15 -31 27 -35 27 -3 0 -22
-14 -42 -31 -41 -37 -48 -25 -7 14 35 34 56 34 94 2 37 -31 52 -31 73 -2 12
15 19 18 22 10 3 -9 27 -13 68 -13 35 0 67 -4 70 -10 10 -17 31 -11 70 20 39
31 57 30 85 -7z m-4014 17 c9 0 14 -11 14 -30 0 -29 -2 -30 -45 -30 l-45 0 0
36 c0 36 1 36 31 30 17 -3 38 -6 45 -6z m-164 -14 c13 -10 15 -15 6 -24 -7 -7
-16 -12 -22 -12 -6 0 -5 5 2 12 9 9 7 14 -6 24 -9 8 -12 13 -7 13 6 0 18 -5
27 -13z m358 -18 c0 -19 -2 -20 -10 -8 -13 19 -13 30 0 30 6 0 10 -10 10 -22z
m70 12 c0 -5 -4 -10 -10 -10 -5 0 -10 5 -10 10 0 6 5 10 10 10 6 0 10 -4 10
-10z m-147 -17 c-4 -10 -9 -11 -19 -2 -8 7 -17 9 -21 5 -3 -3 -1 -6 6 -6 7 0
9 -4 6 -10 -10 -17 -25 -11 -25 9 0 15 7 19 29 19 21 -1 28 -5 24 -15z m48 2
c-1 -15 -24 -12 -29 3 -3 9 2 13 12 10 10 -1 17 -7 17 -13z m60 8 c-11 -5 -11
-7 0 -14 11 -7 10 -9 -3 -9 -10 0 -18 7 -18 15 0 8 8 15 18 14 12 0 13 -2 3
-6z m149 -8 c0 -18 -21 -20 -39 -2 -10 8 -12 8 -7 0 3 -6 2 -14 -4 -18 -5 -3
-10 2 -10 12 -1 17 -1 17 -14 0 -13 -17 -14 -17 -18 1 -5 16 2 19 43 21 39 2
49 -1 49 -14z m1427 -46 c0 -21 -3 -26 -9 -16 -4 9 -5 22 -2 31 9 23 11 20 11
-15z m393 1 c0 -31 -15 -30 -16 1 -1 15 3 26 7 23 5 -3 9 -14 9 -24z m67 -1
c0 -21 -3 -26 -9 -16 -4 9 -5 22 -2 31 9 23 11 20 11 -15z m-1157 1 c0 -11 -2
-20 -4 -20 -2 0 -6 9 -9 20 -3 11 -1 20 4 20 5 0 9 -9 9 -20z m27 -12 c-3 -7
-5 -2 -5 12 0 14 2 19 5 13 2 -7 2 -19 0 -25z m-1131 -28 c9 0 14 -11 14 -30
0 -29 -2 -30 -45 -30 l-45 0 0 36 c0 36 1 36 31 30 17 -3 38 -6 45 -6z m99
-10 c4 -6 10 -8 14 -6 4 3 13 1 21 -4 7 -4 24 -4 36 0 27 11 43 -5 25 -23 -9
-9 -14 -9 -20 2 -7 10 -10 10 -16 1 -6 -9 -10 -9 -16 1 -6 10 -9 11 -9 2 0 -7
-5 -13 -11 -13 -5 0 -7 5 -3 11 4 7 -1 7 -16 -1 -26 -14 -46 0 -37 24 7 18 23
21 32 6z m130 -20 c1 -11 -2 -20 -7 -20 -4 0 -8 12 -8 27 0 30 13 24 15 -7z
m-411 8 c5 -10 7 -10 12 0 3 6 10 12 15 12 6 0 5 -8 -1 -20 -6 -11 -14 -20
-18 -20 -4 0 -13 9 -20 20 -7 11 -8 20 -3 20 5 0 12 -6 15 -12z m486 -8 c0
-27 -23 -30 -38 -6 -9 14 -12 16 -8 4 3 -10 1 -18 -4 -18 -10 0 -14 23 -6 31
2 2 16 5 30 5 19 1 26 -3 26 -16z m800 -10 c0 -11 -2 -20 -4 -20 -2 0 -6 9 -9
20 -3 11 -1 20 4 20 5 0 9 -9 9 -20z m40 16 c0 -14 -14 -36 -22 -36 -6 0 -6 6
1 14 9 11 9 15 -1 19 -8 4 -7 6 5 6 9 1 17 -1 17 -3z m633 -16 c3 -11 1 -20
-4 -20 -5 0 -9 9 -9 20 0 11 2 20 4 20 2 0 6 -9 9 -20z m442 10 c3 -5 1 -10
-4 -10 -6 0 -11 5 -11 10 0 6 2 10 4 10 3 0 8 -4 11 -10z m-395 -17 c0 -14 -2
-15 -9 -4 -7 11 -9 11 -14 0 -4 -10 -6 -9 -6 4 -1 9 6 17 14 17 8 0 15 -8 15
-17z m101 -6 c-10 -9 -11 -8 -5 6 3 10 9 15 12 12 3 -3 0 -11 -7 -18z m117 9
c-7 -8 -15 -12 -17 -11 -5 6 10 25 20 25 5 0 4 -6 -3 -14z m119 -8 c-3 -8 -6
-5 -6 6 -1 11 2 17 5 13 3 -3 4 -12 1 -19z m-2723 -31 c138 -59 139 -62 41
-153 -74 -69 -106 -86 -119 -65 -3 4 -21 58 -39 119 -34 113 -34 142 1 142 9
-1 62 -20 116 -43z m4661 3 c4 -6 -10 -10 -34 -10 -22 0 -43 5 -46 10 -4 6 10
10 34 10 22 0 43 -4 46 -10z m-2995 -45 c0 -14 -2 -25 -4 -25 -2 0 -6 11 -8
25 -3 14 -1 25 3 25 5 0 9 -11 9 -25z m40 6 c0 -21 -17 -37 -27 -27 -3 3 0 13
8 23 9 11 10 14 2 9 -7 -4 -13 -2 -13 3 0 6 7 11 15 11 8 0 15 -9 15 -19z
m752 -6 c3 -15 1 -25 -7 -25 -9 0 -12 28 -6 48 3 9 9 -2 13 -23z m290 0 c3
-15 1 -25 -7 -25 -9 0 -12 28 -6 48 3 9 9 -2 13 -23z m428 -5 c0 -10 -3 -21
-7 -23 -5 -3 -8 8 -8 23 0 15 3 26 8 23 4 -2 7 -13 7 -23z m67 -1 c0 -21 -3
-26 -9 -16 -4 9 -5 22 -2 31 9 23 11 20 11 -15z m-1397 -4 c0 -6 -9 -20 -20
-30 -11 -10 -19 -23 -17 -28 2 -7 -119 -136 -181 -191 -20 -18 -22 -18 -52 4
l-32 23 57 57 c47 48 57 63 53 84 -3 14 -1 26 3 26 5 0 9 -10 9 -22 1 -22 1
-22 12 -4 21 37 62 66 85 61 15 -4 27 2 40 19 18 24 43 25 43 1z m740 10 c0
-8 -9 -15 -20 -15 -20 0 -26 11 -13 23 12 13 33 7 33 -8z m23 -5 c3 -11 1 -20
-4 -20 -5 0 -9 9 -9 20 0 11 2 20 4 20 2 0 6 -9 9 -20z m43 -4 c2 -15 2 -15
-3 0 -4 14 -7 14 -14 3 -7 -11 -9 -10 -9 4 0 23 24 17 26 -7z m384 -2 c0 -8
-4 -14 -8 -14 -4 0 -8 9 -8 19 0 11 4 17 8 15 4 -3 8 -12 8 -20z m2240 -19 c0
-47 -59 -82 -88 -53 -27 27 -6 76 38 90 24 8 50 -11 50 -37z m-520 11 c0 -2
-11 -6 -25 -8 -13 -3 -22 -1 -19 3 5 9 44 13 44 5z m124 -4 c2 -4 -7 -8 -22
-7 -38 0 -41 -29 -5 -50 15 -9 20 -14 10 -11 -51 16 -69 17 -101 6 -20 -6 -46
-25 -60 -41 -20 -24 -24 -26 -23 -10 1 23 72 71 104 71 15 0 27 9 35 25 11 24
51 35 62 17z m-2488 -61 c-1 -31 -16 -33 -16 -2 0 15 8 31 15 31 1 0 2 -13 1
-29z m961 -18 c-3 -10 -5 -2 -5 17 0 19 2 27 5 18 2 -10 2 -26 0 -35z m1114
19 c-16 -30 -13 -40 4 -18 8 11 15 15 15 10 0 -13 -48 -58 -77 -73 -26 -13
-100 -13 -128 0 -19 9 -18 9 3 5 12 -2 22 -1 22 4 0 4 23 10 52 13 53 7 92 33
104 69 3 11 8 17 11 15 2 -3 0 -14 -6 -25z m-1898 -2 c3 -11 1 -20 -4 -20 -5
0 -9 9 -9 20 0 11 2 20 4 20 2 0 6 -9 9 -20z m309 -12 c-15 -15 -26 -4 -18 18
5 13 9 15 18 6 9 -9 9 -15 0 -24z m405 -5 c-3 -10 -5 -4 -5 12 0 17 2 24 5 18
2 -7 2 -21 0 -30z m-850 5 c-3 -8 -6 -5 -6 6 -1 11 2 17 5 13 3 -3 4 -12 1
-19z m-290 -200 c-1 -40 -3 -8 -3 72 0 80 2 112 3 73 2 -40 2 -106 0 -145z
m2812 198 c-15 -13 -49 -25 -49 -17 0 5 8 12 18 14 24 6 36 8 31 3z m-4249
-41 c0 -32 -2 -35 -30 -35 -26 0 -30 4 -30 28 0 35 6 42 37 42 20 0 23 -5 23
-35z m80 16 c0 -4 11 -7 25 -6 14 2 25 -2 25 -8 0 -8 3 -8 8 -2 14 20 41 17
39 -5 -1 -22 -12 -26 -23 -9 -4 8 -9 7 -15 -2 -6 -10 -9 -11 -9 -1 0 6 -7 12
-16 12 -8 0 -13 -4 -10 -8 3 -5 -8 -9 -24 -9 -25 0 -30 4 -30 24 0 14 6 23 15
23 8 0 15 -4 15 -9z m130 -13 c0 -19 2 -20 10 -8 11 18 57 23 66 8 3 -5 -1
-17 -10 -26 -10 -10 -16 -12 -16 -4 0 8 -11 10 -32 7 -30 -5 -33 -3 -33 20 0
14 3 25 8 25 4 0 7 -10 7 -22z m136 -8 c0 -11 -4 -20 -8 -20 -4 0 -8 9 -8 20
0 11 4 20 8 20 4 0 8 -9 8 -20z m1231 -102 c-2 -24 -4 -5 -4 42 0 47 2 66 4
43 2 -24 2 -62 0 -85z m298 92 c3 -5 1 -10 -4 -10 -6 0 -11 5 -11 10 0 6 2 10
4 10 3 0 8 -4 11 -10z m32 -22 c-3 -7 -5 -2 -5 12 0 14 2 19 5 13 2 -7 2 -19
0 -25z m58 8 c0 -15 -4 -21 -9 -16 -5 5 -6 16 -3 24 9 22 12 20 12 -8z m222
-8 c-3 -7 -5 -2 -5 12 0 14 2 19 5 13 2 -7 2 -19 0 -25z m280 0 c-3 -7 -5 -2
-5 12 0 14 2 19 5 13 2 -7 2 -19 0 -25z m541 7 c-3 -3 -9 2 -12 12 -6 14 -5
15 5 6 7 -7 10 -15 7 -18z m382 -10 c-13 -14 -26 -23 -28 -20 -3 3 5 16 18 30
13 14 26 23 28 20 3 -3 -5 -16 -18 -30z m-1642 4 c3 -12 2 -12 -6 0 -8 11 -11
10 -15 -5 -4 -16 -5 -15 -6 4 -1 25 20 26 27 1z m26 6 c-4 -8 -8 -15 -10 -15
-2 0 -4 7 -4 15 0 8 4 15 10 15 5 0 7 -7 4 -15z m36 0 c0 -8 -2 -15 -4 -15 -2
0 -6 7 -10 15 -3 8 -1 15 4 15 6 0 10 -7 10 -15z m40 -2 c0 -14 -2 -15 -9 -4
-7 11 -9 11 -14 0 -4 -10 -6 -9 -6 4 -1 9 6 17 14 17 8 0 15 -8 15 -17z m202
10 c-6 -2 -9 -10 -6 -15 4 -7 2 -8 -5 -4 -13 9 -5 26 12 25 9 0 8 -2 -1 -6z
m58 -5 c0 -4 -4 -10 -10 -13 -5 -3 -10 0 -10 7 0 9 -3 9 -10 -2 -8 -13 -10
-13 -10 2 0 11 7 16 20 15 11 -1 20 -5 20 -9z m58 -9 c3 -11 1 -11 -8 1 -9 11
-13 12 -17 3 -2 -7 -9 -13 -15 -13 -6 0 -5 6 2 15 15 18 32 15 38 -6z m62 12
c0 -6 -4 -13 -10 -16 -5 -3 -10 1 -10 9 0 9 5 16 10 16 6 0 10 -4 10 -9z m57
-13 c-3 -8 -6 -5 -6 6 -1 11 2 17 5 13 3 -3 4 -12 1 -19z m47 7 c3 -8 1 -15
-3 -15 -5 0 -11 7 -15 15 -3 8 -1 15 3 15 5 0 11 -7 15 -15z m99 8 c-7 -2 -13
-12 -13 -21 -1 -15 -2 -15 -14 1 -11 14 -15 15 -19 5 -4 -8 -6 -7 -6 5 -1 13
7 17 32 16 17 0 26 -3 20 -6z m77 -4 c0 -5 -4 -7 -10 -4 -5 3 -10 1 -10 -6 0
-7 -3 -10 -6 -6 -8 7 4 27 17 27 5 0 9 -5 9 -11z m27 -11 c-3 -8 -6 -5 -6 6
-1 11 2 17 5 13 3 -3 4 -12 1 -19z m391 8 c-9 -10 -15 -11 -20 -2 -6 8 -11 7
-18 -4 -8 -13 -10 -12 -10 3 0 12 8 17 30 17 26 0 29 -2 18 -14z m-2928 -81
c0 -32 -2 -35 -31 -35 -28 0 -30 2 -25 33 2 17 5 33 5 35 1 1 12 2 26 2 22 0
25 -4 25 -35z m77 -5 c2 -14 -3 -20 -15 -19 -12 0 -13 2 -3 6 10 4 11 7 1 13
-7 4 -9 13 -5 20 9 14 18 6 22 -20z m136 5 c3 -20 1 -25 -12 -23 -9 1 -20 0
-26 -4 -5 -3 -26 -3 -45 1 -25 4 -36 12 -38 26 -3 20 -2 20 13 1 8 -11 15 -14
15 -8 0 16 52 15 69 0 11 -11 13 -9 8 10 -3 12 -2 22 3 22 4 0 10 -11 13 -25z
m3737 21 c0 -2 -7 -7 -16 -10 -8 -3 -12 -2 -9 4 6 10 25 14 25 6z m-3640 -26
c-9 -6 -9 -9 1 -13 9 -3 10 -6 2 -6 -6 -1 -15 4 -18 9 -9 14 4 32 17 24 7 -4
6 -9 -2 -14z m1673 0 c3 -11 1 -20 -4 -20 -5 0 -9 9 -9 20 0 11 2 20 4 20 2 0
6 -9 9 -20z m2177 -15 c-16 -20 -74 -29 -97 -16 -15 9 -11 10 23 11 28 0 47 6
60 21 20 23 34 8 14 -16z m-3910 9 c0 -17 -22 -14 -28 4 -2 7 3 12 12 12 9 0
16 -7 16 -16z m741 -7 c-10 -9 -11 -8 -5 6 3 10 9 15 12 12 3 -3 0 -11 -7 -18z
m1 -73 c-9 -16 -10 -14 -9 8 1 15 6 23 11 18 4 -4 4 -16 -2 -26z m590 -10 c-6
-12 -9 -7 -9 16 0 23 3 28 9 16 5 -9 5 -23 0 -32z m-622 16 c0 -11 -2 -20 -4
-20 -2 0 -6 9 -9 20 -3 11 -1 20 4 20 5 0 9 -9 9 -20z m-1145 0 c3 -5 17 -10
31 -10 19 0 24 -5 24 -25 0 -23 -4 -25 -45 -25 -45 0 -45 0 -45 35 0 34 20 49
35 25z m-115 -30 c0 -5 -10 -15 -22 -21 -22 -12 -22 -11 -8 6 11 14 12 19 3
22 -7 3 -13 9 -13 14 0 6 8 5 20 -1 11 -6 20 -15 20 -20z m560 9 c0 -6 -4 -7
-10 -4 -5 3 -10 11 -10 16 0 6 5 7 10 4 6 -3 10 -11 10 -16z m-317 -14 c-7
-21 -13 -19 -13 6 0 11 4 18 10 14 5 -3 7 -12 3 -20z m104 6 c0 -11 -5 -17 -9
-15 -11 7 -10 34 1 34 6 0 9 -9 8 -19z m112 -3 c1 18 71 16 71 -2 0 -18 -14
-23 -56 -18 -27 3 -34 9 -33 26 0 20 1 20 9 1 5 -11 9 -14 9 -7z m-171 0 c-6
-18 -28 -21 -28 -4 0 9 7 16 16 16 9 0 14 -5 12 -12z m32 -3 c0 -8 -4 -15 -10
-15 -5 0 -10 7 -10 15 0 8 5 15 10 15 6 0 10 -7 10 -15z m104 0 c3 -9 0 -15
-9 -15 -8 0 -15 7 -15 15 0 8 4 15 9 15 5 0 11 -7 15 -15z m174 3 c-6 -18 -28
-21 -28 -4 0 9 7 16 16 16 9 0 14 -5 12 -12z m-211 -24 c-3 -3 -12 -4 -19 -1
-8 3 -5 6 6 6 11 1 17 -2 13 -5z m873 -24 c0 -11 -2 -20 -4 -20 -2 0 -6 9 -9
20 -3 11 -1 20 4 20 5 0 9 -9 9 -20z m38 -2 c-2 -13 -7 -23 -12 -23 -5 0 -11
10 -12 23 -3 15 1 22 12 22 10 0 14 -7 12 -22z m449 -15 c-3 -10 -5 -4 -5 12
0 17 2 24 5 18 2 -7 2 -21 0 -30z m1325 -7 c12 -18 -12 -47 -35 -44 -25 3 -34
32 -17 53 12 14 40 10 52 -9z m113 8 c18 -18 16 -33 -7 -47 -35 -22 -66 21
-36 51 16 16 23 15 43 -4z m125 -9 c10 -12 10 -18 0 -30 -7 -8 -18 -15 -25
-15 -19 0 -38 28 -31 45 7 19 40 19 56 0z m-3154 -15 c9 0 14 -11 14 -30 0
-29 -2 -30 -45 -30 l-45 0 0 36 c0 36 1 36 31 30 17 -3 38 -6 45 -6z m-167
-14 c9 -10 8 -16 -4 -26 -9 -7 -18 -10 -22 -7 -3 4 2 9 11 13 15 6 15 7 -1 20
-10 7 -13 14 -7 14 6 0 17 -6 23 -14z m571 -11 c0 -14 -4 -25 -9 -25 -5 0 -8
11 -8 25 0 14 3 25 8 25 5 0 9 -11 9 -25z m-314 -5 c0 -11 -4 -20 -8 -20 -4 0
-8 9 -8 20 0 11 4 20 8 20 4 0 8 -9 8 -20z m74 -1 c0 -10 -5 -19 -11 -19 -5 0
-7 5 -4 10 3 6 -3 10 -15 10 -12 0 -18 -4 -15 -10 3 -5 1 -10 -4 -10 -11 0
-15 22 -7 31 2 2 16 5 30 5 19 2 26 -3 26 -17z m26 2 c0 -11 -4 -17 -8 -15 -4
3 -8 12 -8 20 0 8 4 14 8 14 4 0 8 -9 8 -19z m142 4 c2 -2 1 -9 -3 -15 -6 -9
-10 -9 -16 1 -5 9 -9 9 -9 3 0 -7 -14 -11 -30 -10 -17 1 -30 5 -30 9 0 4 0 11
0 16 0 9 79 5 88 -4z m37 -15 c-5 -8 -11 -8 -17 -2 -6 6 -7 16 -3 22 5 8 11 8
17 2 6 -6 7 -16 3 -22z m105 9 c0 -26 -23 -29 -38 -5 -9 14 -12 16 -8 4 3 -10
1 -18 -4 -18 -6 0 -10 8 -10 18 0 14 8 19 30 19 22 0 30 -5 30 -18z m796 9 c4
-7 3 -8 -5 -4 -6 4 -20 2 -29 -6 -15 -12 -16 -11 -3 5 16 20 27 22 37 5z
m-169 -35 c-3 -10 -5 -4 -5 12 0 17 2 24 5 18 2 -7 2 -21 0 -30z m39 0 c-7
-17 -8 -17 -17 0 -12 21 -2 44 13 29 6 -6 8 -19 4 -29z m297 -4 c-8 -29 -13
-23 -13 14 0 22 3 28 9 18 5 -7 6 -22 4 -32z m-163 1 c0 -5 -9 -10 -20 -10
-11 0 -20 5 -20 10 0 6 9 10 20 10 11 0 20 -4 20 -10z m-1260 -87 c0 -21 -5
-23 -45 -23 -44 0 -45 1 -45 33 l0 33 45 -10 c37 -9 45 -15 45 -33z m1130 16
c0 -10 -7 -19 -15 -19 -15 0 -21 31 -9 43 11 10 24 -3 24 -24z m-40 1 c0 -11
-4 -20 -8 -20 -4 0 -8 9 -8 20 0 11 4 20 8 20 4 0 8 -9 8 -20z m-1263 -7 c2
-6 -6 -17 -19 -24 -21 -11 -22 -11 -9 5 13 15 13 19 0 27 -11 8 -10 9 5 7 11
-2 21 -8 23 -15z m248 -13 c1 -10 -2 -17 -7 -14 -4 3 -8 15 -8 26 0 26 13 15
15 -12z m101 5 c1 -8 -2 -13 -7 -9 -5 3 -9 12 -9 21 0 19 13 9 16 -12z m-62 6
c3 -5 -1 -11 -9 -15 -9 -3 -15 0 -15 9 0 16 16 20 24 6z m36 -6 c0 -8 -4 -15
-10 -15 -5 0 -10 7 -10 15 0 8 5 15 10 15 6 0 10 -7 10 -15z m94 0 c-4 -8 -8
-15 -10 -15 -2 0 -4 7 -4 15 0 8 4 15 10 15 5 0 7 -7 4 -15z m36 3 c0 14 36
16 45 2 3 -6 -1 -7 -9 -4 -9 3 -16 1 -16 -5 0 -6 -9 -11 -20 -11 -12 0 -20 7
-20 18 0 14 2 15 10 2 6 -10 10 -11 10 -2z m-3879 -27 c29 -30 37 -51 19 -51
-5 0 -14 10 -21 21 l-11 21 -12 -23 c-13 -28 -41 -36 -61 -19 -19 16 -19 45 1
64 23 24 52 19 85 -13z m3816 3 c-3 -3 -12 -4 -19 -1 -8 3 -5 6 6 6 11 1 17
-2 13 -5z m1042 -33 c8 -14 6 -22 -8 -35 -17 -16 -19 -16 -26 1 -12 26 -12 37
0 45 16 12 24 9 34 -11z m-165 0 c3 -5 -2 -15 -12 -22 -15 -13 -16 -12 -4 3
10 13 10 17 0 21 -9 4 -9 6 -1 6 6 1 14 -3 17 -8z m23 -23 c-3 -7 -5 -2 -5 12
0 14 2 19 5 13 2 -7 2 -19 0 -25z m706 12 c-3 -12 -8 -19 -11 -16 -5 6 5 36
12 36 2 0 2 -9 -1 -20z m504 -17 c-3 -10 -5 -4 -5 12 0 17 2 24 5 18 2 -7 2
-21 0 -30z m-709 12 c4 -4 2 -5 -5 -2 -6 4 -13 3 -15 -2 -1 -5 -11 -3 -22 4
-17 13 -17 14 8 11 14 -1 29 -6 34 -11z m68 3 c4 -7 3 -8 -4 -4 -7 4 -12 2
-12 -5 0 -7 -3 -10 -6 -6 -6 5 3 27 11 27 2 0 7 -5 11 -12z m98 4 c-6 -4 -13
-13 -15 -20 -3 -9 -9 -7 -20 6 -15 18 -15 19 14 20 17 0 26 -2 21 -6z m-139
-12 c3 -5 1 -10 -4 -10 -6 0 -11 5 -11 10 0 6 2 10 4 10 3 0 8 -4 11 -10z
m-5274 -46 c33 -15 59 -31 59 -35 0 -12 -2 -12 -55 11 -26 11 -49 20 -51 20
-2 0 -4 -13 -4 -30 0 -16 -4 -30 -10 -30 -5 0 -10 20 -10 45 0 25 3 45 6 45 4
0 33 -12 65 -26z m6566 -6 c-3 -8 -6 -5 -6 6 -1 11 2 17 5 13 3 -3 4 -12 1
-19z m27 -4 c3 -8 2 -12 -4 -9 -6 3 -10 10 -10 16 0 14 7 11 14 -7z m28 -6
c-7 -7 -12 -8 -12 -2 0 14 12 26 19 19 2 -3 -1 -11 -7 -17z m72 6 c3 -8 2 -12
-4 -9 -6 3 -10 10 -10 16 0 14 7 11 14 -7z m80 8 c2 -4 -4 -8 -14 -8 -10 0
-16 4 -14 8 3 4 9 8 14 8 5 0 11 -4 14 -8z m52 -4 c-10 -6 -22 -6 -26 -2 -5 5
3 10 18 11 22 1 24 0 8 -9z m107 -5 c-6 -15 -23 -17 -23 -3 0 14 -27 12 -33
-2 -3 -8 -6 -6 -6 4 -1 14 6 17 33 15 22 -1 32 -6 29 -14z m47 -6 c0 -7 -4 -6
-10 3 -8 12 -10 12 -10 1 0 -8 -3 -12 -6 -8 -9 9 6 28 17 22 5 -4 9 -12 9 -18z
m138 2 c3 -12 2 -12 -6 0 -8 11 -11 10 -15 -5 -4 -16 -5 -15 -6 4 -1 25 20 26
27 1z m26 6 c-4 -8 -8 -15 -10 -15 -2 0 -4 7 -4 15 0 8 4 15 10 15 5 0 7 -7 4
-15z m62 3 c-10 -6 -22 -6 -26 -2 -5 5 3 10 18 11 22 1 24 0 8 -9z m50 0 c4
-7 3 -8 -4 -4 -7 4 -12 2 -12 -5 0 -7 -3 -10 -6 -6 -6 5 3 27 11 27 2 0 7 -5
11 -12z m61 -3 c0 -8 -4 -12 -9 -9 -4 3 -8 9 -8 15 0 5 4 9 8 9 5 0 9 -7 9
-15z m109 3 c4 -7 3 -8 -4 -4 -7 4 -12 2 -12 -5 0 -7 -3 -10 -6 -6 -6 5 3 27
11 27 2 0 7 -5 11 -12z m70 0 c4 -7 3 -8 -4 -4 -7 4 -12 2 -12 -5 0 -7 -3 -10
-6 -6 -6 5 3 27 11 27 2 0 7 -5 11 -12z m84 -2 c-7 -7 -13 -7 -20 0 -6 6 -3
10 10 10 13 0 16 -4 10 -10z m179 4 c-6 -4 -8 -14 -5 -21 4 -8 1 -6 -8 5 -8
10 -19 15 -25 11 -6 -3 -11 -2 -11 4 0 5 14 9 31 9 17 -1 25 -4 18 -8z m138
-12 c-3 -8 -6 -5 -6 6 -1 11 2 17 5 13 3 -3 4 -12 1 -19z m36 7 c-3 -9 -8 -14
-10 -11 -3 3 -2 9 2 15 9 16 15 13 8 -4z m-3485 -40 c38 -43 42 -45 96 -45 32
0 89 5 128 11 49 8 77 8 92 0 11 -5 30 -11 41 -13 19 -3 20 -12 23 -257 1
-140 -1 -258 -6 -263 -12 -12 -664 -20 -681 -9 -13 8 -15 57 -14 305 1 163 4
300 8 306 4 6 60 10 140 10 l133 0 40 -45z m277 36 c3 -5 1 -12 -5 -16 -6 -4
-8 -11 -5 -16 4 -5 1 -9 -4 -9 -14 0 -14 17 0 26 8 4 7 9 -2 15 -10 6 -10 9
-2 9 6 0 14 -4 18 -9z m32 -21 c-1 -11 -8 -20 -15 -20 -12 0 -12 3 -2 15 6 8
8 20 4 26 -4 7 -3 9 4 5 6 -3 10 -15 9 -26z m599 1 c0 -11 -4 -17 -8 -15 -4 3
-8 12 -8 20 0 8 4 14 8 14 4 0 8 -9 8 -19z m3162 -23 c8 -8 8 -17 1 -30 -14
-25 -11 -27 51 -37 51 -8 53 -8 69 20 11 20 24 29 42 29 30 0 40 -15 29 -45
-6 -16 -1 -23 21 -32 24 -10 27 -15 20 -35 -6 -18 -17 -24 -48 -26 -36 -3 -42
-7 -66 -53 -23 -41 -25 -50 -12 -54 8 -3 22 -7 30 -10 19 -6 19 -29 0 -49 -10
-9 -26 -13 -48 -10 -28 5 -34 1 -49 -25 -9 -17 -25 -31 -35 -31 -14 1 -13 4 7
15 14 8 19 14 12 15 -7 0 -10 5 -6 12 4 7 3 8 -5 4 -6 -4 -8 -12 -5 -18 4 -6
-2 -6 -15 1 -24 13 -25 15 -10 42 9 17 7 21 -10 26 -17 4 -19 8 -10 19 9 11 8
15 -5 20 -9 3 -23 4 -31 0 -8 -3 -15 0 -15 5 0 8 18 9 53 5 l52 -6 27 52 c15
28 27 53 25 54 -1 1 -28 5 -59 9 l-57 7 -20 -40 c-11 -22 -26 -44 -32 -48 -7
-4 -9 -3 -6 3 4 6 0 13 -7 16 -8 3 -17 1 -20 -6 -3 -7 -3 -1 0 13 5 24 4 24
-10 6 -9 -11 -16 -24 -16 -30 0 -5 -3 -7 -6 -4 -5 6 32 88 40 88 2 0 2 -8 -1
-19 -2 -10 3 -26 12 -35 23 -22 33 -11 12 12 -13 15 -14 21 -4 31 13 13 17 71
5 71 -5 0 -8 5 -8 11 0 6 7 9 15 5 8 -3 15 0 15 7 0 21 30 57 49 57 9 0 22 -5
29 -12z m-8487 -47 c28 -28 37 -51 21 -51 -4 0 -13 10 -21 21 l-13 22 -12 -24
c-15 -30 -46 -37 -63 -13 -17 23 -16 39 3 58 23 24 52 19 85 -13z m5369 -19
c0 -15 -2 -15 -10 -2 -8 12 -10 12 -10 1 0 -8 -3 -12 -6 -8 -4 3 -4 13 0 22 7
20 26 10 26 -13z m26 3 c1 -8 -2 -15 -7 -15 -5 0 -9 10 -9 22 0 23 12 17 16
-7z m2971 19 c-3 -3 -12 -4 -19 -1 -8 3 -5 6 6 6 11 1 17 -2 13 -5z m-3047
-14 c-12 -8 -12 -10 -1 -10 8 0 12 -3 8 -6 -9 -9 -28 6 -22 17 4 5 12 9 18 9
7 0 6 -4 -3 -10z m3005 -20 c-3 -6 4 -14 17 -19 15 -7 17 -10 7 -10 -19 -1
-42 23 -32 32 10 10 15 8 8 -3z m53 -26 c-3 -14 -5 -12 -10 9 -3 19 -2 25 4
19 6 -6 8 -18 6 -28z m-2982 -45 c1 -25 -1 -28 -8 -15 -5 10 -7 24 -4 32 8 21
11 17 12 -17z m241 -6 c-3 -10 -5 -4 -5 12 0 17 2 24 5 18 2 -7 2 -21 0 -30z
m73 10 c0 -21 -3 -24 -9 -14 -5 8 -7 20 -4 28 8 21 13 15 13 -14z m1206 3 c2
-14 1 -14 -3 1 -5 16 -6 16 -14 -2 -7 -19 -8 -18 -8 3 -1 27 23 25 25 -2z
m174 20 c0 -2 -8 -10 -17 -17 -16 -13 -17 -12 -4 4 13 16 21 21 21 13z m64 -4
c2 -4 0 -14 -6 -22 -8 -12 -9 -12 -5 2 3 9 1 19 -6 22 -9 3 -9 5 0 5 6 1 14
-3 17 -7z m-7132 -26 c11 -25 6 -56 -10 -56 -4 0 -8 12 -7 27 0 32 -24 43 -32
14 -6 -24 -23 -28 -23 -6 0 8 -7 15 -16 15 -12 0 -15 -7 -12 -25 3 -14 2 -25
-3 -25 -14 0 -21 21 -14 47 5 20 11 24 31 20 13 -2 27 0 30 4 11 18 45 8 56
-15z m6645 2 c-3 -8 -6 -5 -6 6 -1 11 2 17 5 13 3 -3 4 -12 1 -19z m79 11 c3
-5 -3 -6 -12 -2 -14 5 -16 3 -11 -13 7 -18 7 -18 -7 0 -8 10 -19 15 -25 11 -6
-3 -11 -2 -11 4 0 12 59 12 66 0z m58 -4 c-4 -8 -8 -15 -10 -15 -2 0 -4 7 -4
15 0 8 4 15 10 15 5 0 7 -7 4 -15z m-1484 -80 c-10 -12 -10 -15 0 -15 8 0 11
-3 7 -6 -3 -3 -10 -3 -16 0 -12 8 -3 36 11 36 6 0 5 -6 -2 -15z m49 -13 c0
-14 -2 -13 -9 3 -8 19 -9 19 -9 1 -1 -11 -4 -17 -7 -13 -4 3 -4 13 0 22 7 20
26 10 25 -13z m27 9 c0 -11 -4 -17 -8 -15 -4 3 -8 12 -8 20 0 8 4 14 8 14 4 0
8 -9 8 -19z m-229 -208 c-1 -43 -3 -10 -3 72 0 83 2 118 3 78 2 -40 2 -107 0
-150z m3076 202 c-3 -9 -8 -14 -10 -11 -3 3 -2 9 2 15 9 16 15 13 8 -4z
m-8221 -19 c11 -25 6 -56 -10 -56 -4 0 -8 12 -7 27 0 32 -24 43 -32 14 -6 -24
-23 -28 -23 -6 0 8 -7 15 -16 15 -12 0 -15 -7 -12 -25 3 -14 2 -25 -3 -25 -14
0 -21 21 -14 47 5 20 11 24 31 20 13 -2 27 0 30 4 11 18 45 8 56 -15z m8233
-24 c-3 -3 -11 0 -18 7 -9 10 -8 11 6 5 10 -3 15 -9 12 -12z m-2929 -37 c1 -8
-2 -15 -7 -15 -5 0 -9 10 -9 22 0 23 12 17 16 -7z m1314 6 c0 -5 -7 -12 -16
-15 -14 -5 -15 -4 -4 9 14 17 20 19 20 6z m480 -12 c0 -11 -4 -18 -10 -14 -5
3 -7 12 -3 20 7 21 13 19 13 -6z m33 8 c3 -8 -1 -14 -9 -14 -15 0 -18 9 -7 20
9 9 10 9 16 -6z m1305 6 c-10 -2 -26 -2 -35 0 -10 3 -2 5 17 5 19 0 27 -2 18
-5z m-1788 -7 c0 -3 -4 -8 -10 -11 -5 -3 -10 -1 -10 4 0 6 5 11 10 11 6 0 10
-2 10 -4z m76 -8 c4 -6 3 -8 -4 -4 -5 3 -13 0 -15 -6 -3 -8 -6 -6 -6 5 -1 19
14 23 25 5z m104 -5 c0 -15 -2 -16 -10 -3 -8 12 -10 12 -11 -5 0 -11 -3 -15
-5 -8 -3 7 -13 9 -22 6 -13 -4 -12 -2 3 10 26 22 45 21 45 0z m17 -5 c-3 -8
-6 -5 -6 6 -1 11 2 17 5 13 3 -3 4 -12 1 -19z m80 7 c0 -8 -4 -12 -9 -9 -5 3
-6 10 -3 15 9 13 12 11 12 -6z m-6925 -29 c11 -25 6 -56 -10 -56 -4 0 -8 12
-7 27 0 32 -24 43 -32 14 -6 -24 -23 -28 -23 -6 0 8 -7 15 -16 15 -12 0 -15
-7 -12 -25 3 -14 2 -25 -3 -25 -14 0 -21 21 -14 47 5 20 11 24 31 20 13 -2 27
0 30 4 11 18 45 8 56 -15z m6464 -81 c-1 -8 -5 -17 -8 -21 -5 -4 -4 16 1 34 3
9 9 -1 7 -13z m284 5 c0 -5 -5 -10 -11 -10 -5 0 -7 5 -4 10 3 6 8 10 11 10 2
0 4 -4 4 -10z m165 0 c3 -5 1 -10 -4 -10 -6 0 -11 5 -11 10 0 6 2 10 4 10 3 0
8 -4 11 -10z m85 1 c0 -5 -7 -12 -16 -15 -14 -5 -15 -4 -4 9 14 17 20 19 20 6z
m-7012 -17 c26 -18 28 -31 5 -56 -20 -22 -70 -23 -95 -1 -22 20 -23 31 -1 55
20 22 61 23 91 2z m6515 1 c-3 -9 -8 -14 -10 -11 -3 3 -2 9 2 15 9 16 15 13 8
-4z m30 0 c-3 -9 -8 -14 -10 -11 -3 3 -2 9 2 15 9 16 15 13 8 -4z m46 12 c-2
-1 -13 -9 -24 -17 -19 -14 -19 -14 -6 3 7 9 18 17 24 17 6 0 8 -1 6 -3z m37
-9 c4 -7 3 -8 -4 -4 -7 4 -12 2 -12 -5 0 -7 -3 -10 -6 -6 -6 5 3 27 11 27 2 0
7 -5 11 -12z m212 -9 c3 -12 2 -12 -6 0 -8 11 -10 11 -15 0 -4 -10 -6 -8 -6 4
-1 21 21 18 27 -4z m127 11 c-3 -5 -12 -10 -18 -10 -7 0 -6 4 3 10 19 12 23
12 15 0z m279 2 c3 -5 -1 -9 -9 -9 -8 0 -12 4 -9 9 3 4 7 8 9 8 2 0 6 -4 9 -8z
m246 4 c0 -2 -7 -7 -16 -10 -8 -3 -12 -2 -9 4 6 10 25 14 25 6z m36 -8 c4 -7
3 -8 -4 -4 -7 4 -12 2 -12 -5 0 -7 -3 -10 -6 -6 -6 5 3 27 11 27 2 0 7 -5 11
-12z m-446 -6 c0 -5 -7 -9 -15 -9 -8 0 -15 4 -15 9 0 4 7 8 15 8 8 0 15 -4 15
-8z m-1637 -32 c3 -11 2 -20 -3 -20 -4 0 -10 9 -13 20 -3 11 -2 20 3 20 4 0
10 -9 13 -20z m-5452 -89 c29 -30 37 -51 19 -51 -6 0 -16 12 -23 26 l-12 27
-5 -23 c-8 -32 -35 -48 -57 -34 -24 15 -28 48 -8 68 24 24 53 20 86 -13z
m5171 -13 c-8 -8 -9 -4 -5 13 4 13 8 18 11 10 2 -7 -1 -18 -6 -23z m-444 -63
c-3 -3 -9 2 -12 12 -6 14 -5 15 5 6 7 -7 10 -15 7 -18z m632 15 c0 -5 -5 -10
-11 -10 -5 0 -7 5 -4 10 3 6 8 10 11 10 2 0 4 -4 4 -10z m47 -27 c-3 -10 -5
-4 -5 12 0 17 2 24 5 18 2 -7 2 -21 0 -30z m-109 6 c3 -12 2 -12 -6 0 -8 11
-10 11 -15 0 -4 -10 -6 -8 -6 4 -1 21 21 18 27 -4z m19 -1 c-3 -8 -6 -5 -6 6
-1 11 2 17 5 13 3 -3 4 -12 1 -19z m176 7 c-3 -9 -8 -14 -10 -11 -3 3 -2 9 2
15 9 16 15 13 8 -4z m58 -2 c13 -16 12 -17 -3 -5 -9 8 -23 10 -29 6 -8 -4 -9
-3 -5 4 10 17 21 15 37 -5z m43 3 c-10 -8 -21 -12 -24 -10 -5 6 21 24 34 24 6
0 1 -6 -10 -14z m82 2 c4 -7 3 -8 -4 -4 -7 4 -12 2 -12 -5 0 -7 -3 -10 -6 -6
-6 5 3 27 11 27 2 0 7 -5 11 -12z m27 -3 c-3 -9 -8 -14 -10 -11 -3 3 -2 9 2
15 9 16 15 13 8 -4z m113 3 c4 -7 3 -8 -4 -4 -7 4 -12 2 -12 -3 0 -6 -5 -11
-11 -11 -8 0 -8 5 1 15 15 18 17 18 26 3z m70 0 c4 -7 3 -8 -4 -4 -7 4 -12 2
-12 -5 0 -7 -3 -10 -6 -6 -6 5 3 27 11 27 2 0 7 -5 11 -12z m90 0 c-9 -5 -23
-5 -32 0 -12 6 -7 9 16 9 23 0 28 -3 16 -9z m41 -20 c-3 -7 -5 -2 -5 12 0 14
2 19 5 13 2 -7 2 -19 0 -25z m-6004 -2 c21 -16 22 -26 2 -26 -9 0 -15 -9 -15
-25 0 -32 -16 -32 -63 0 -49 34 -50 57 -2 52 20 -3 38 0 41 4 7 12 16 11 37
-5z m-59 -103 c6 -14 9 -15 15 -4 7 11 14 9 32 -9 18 -17 19 -21 7 -17 -23 8
-24 -11 -1 -20 14 -5 12 -8 -7 -15 -16 -6 -26 -5 -31 3 -4 6 -12 8 -18 5 -6
-4 -18 -1 -26 8 -11 11 -12 16 -2 20 9 5 9 7 0 12 -7 3 -13 10 -13 15 0 6 5 7
10 4 6 -3 10 -1 10 4 0 17 17 13 24 -6z m4767 -50 c-12 -20 -14 -14 -5 12 4 9
9 14 11 11 3 -2 0 -13 -6 -23z m302 14 c3 -8 2 -20 -3 -26 -5 -9 -7 -4 -7 13
0 29 2 32 10 13z m-4953 -127 c0 -6 -38 -10 -94 -10 -53 0 -98 4 -101 10 -4 6
30 10 94 10 61 0 101 -4 101 -10z m-67 -89 c21 15 27 17 27 6 0 -8 -10 -22
-22 -30 l-23 -16 23 0 c13 -1 22 -7 22 -16 0 -12 -15 -15 -75 -15 -60 0 -75 3
-75 15 0 11 12 15 47 15 46 0 47 1 25 16 -12 8 -22 22 -22 31 0 14 4 13 23 -5
l24 -22 26 21z m-51 -113 c2 -17 10 -23 28 -23 18 0 26 6 28 23 4 25 22 31 22
6 0 -32 -20 -54 -50 -54 -30 0 -50 22 -50 54 0 25 18 19 22 -6z m62 -84 c34
-34 9 -78 -40 -72 -37 4 -51 29 -36 62 13 30 51 35 76 10z m4192 -49 c8 -31
32 -33 36 -2 3 20 9 22 85 25 81 3 83 2 89 -23 8 -31 31 -33 36 -2 3 20 9 22
84 25 80 3 82 2 88 -23 8 -32 24 -32 36 0 9 24 13 25 89 25 76 0 79 -1 85 -25
8 -32 24 -32 36 0 9 24 13 25 89 25 76 0 79 -1 85 -25 4 -14 11 -25 16 -25 6
0 15 11 20 25 9 24 13 25 89 25 76 0 79 -1 85 -25 8 -32 24 -32 36 0 9 24 13
25 89 25 75 0 80 -1 83 -22 2 -13 10 -23 18 -23 8 0 16 10 18 23 3 21 8 22 87
22 79 0 84 -1 87 -22 2 -13 10 -23 18 -23 8 0 16 10 18 23 3 21 8 22 87 22 78
0 84 -1 87 -22 4 -31 26 -34 34 -4 6 25 8 26 89 26 78 0 84 -1 87 -22 4 -31
26 -34 34 -4 6 25 9 26 85 26 76 0 80 -1 89 -25 12 -32 28 -32 36 0 6 24 9 25
85 25 76 0 80 -1 89 -25 12 -32 26 -32 34 0 6 24 9 25 86 25 77 0 81 -1 90
-25 5 -14 14 -25 19 -25 5 0 12 11 15 25 l6 25 130 0 c72 0 130 -1 130 -2 0
-2 15 -46 34 -98 18 -52 36 -108 40 -123 l7 -28 -84 2 c-89 2 -107 -3 -107
-27 0 -11 -20 -14 -100 -14 -83 0 -101 3 -110 18 -11 16 -11 16 -6 0 5 -17 -9
-18 -204 -18 -180 0 -210 2 -210 15 0 8 -4 15 -10 15 -5 0 -7 -7 -4 -15 5 -13
-78 -15 -710 -15 -675 0 -716 1 -717 18 -1 16 -2 16 -6 0 -4 -16 -23 -18 -209
-18 -175 0 -204 2 -204 15 0 8 -4 15 -10 15 -5 0 -10 -7 -10 -15 0 -12 -18
-15 -100 -15 -79 0 -100 3 -100 14 0 22 -28 28 -117 26 -46 0 -83 3 -83 8 0
16 31 217 35 230 3 8 29 12 84 12 78 0 81 -1 87 -25z m3825 -1 c17 -8 29 -18
26 -20 -11 -12 -108 -32 -127 -27 -12 3 -28 -1 -38 -10 -20 -19 -72 -40 -72
-29 0 4 9 22 20 40 35 57 127 80 191 46z m-8081 -44 c0 -15 58 -12 63 3 2 6 8
9 12 5 17 -16 -5 -38 -39 -38 -19 0 -37 -6 -40 -12 -5 -10 -7 -10 -12 0 -3 6
-12 12 -20 12 -8 0 -14 5 -14 10 0 6 7 10 15 10 8 0 15 5 15 10 0 6 5 10 10
10 6 0 10 -4 10 -10z m70 -74 c13 -17 10 -58 -5 -63 -6 -2 -11 9 -10 23 0 38
-17 39 -37 4 -26 -46 -78 -35 -78 17 0 29 18 30 22 1 5 -32 21 -32 40 2 18 32
48 39 68 16z m-30 -167 c0 -17 4 -28 10 -24 6 3 10 17 10 31 0 14 4 22 10 19
14 -9 13 -48 -2 -63 -27 -27 -88 -8 -88 28 0 21 20 40 42 40 13 0 18 -8 18
-31z m3863 -26 c-7 -2 -19 -2 -25 0 -7 3 -2 5 12 5 14 0 19 -2 13 -5z m105 0
c-10 -2 -28 -2 -40 0 -13 2 -5 4 17 4 22 1 32 -1 23 -4z m-3944 -62 c10 -11
16 -30 14 -43 -3 -21 -8 -23 -75 -26 -60 -2 -73 0 -73 13 0 9 9 15 25 15 17 0
25 5 25 18 0 42 54 57 84 23z m4 -103 c7 -7 12 -21 12 -33 0 -28 -19 -45 -50
-45 -31 0 -50 17 -50 45 0 28 19 45 50 45 14 0 31 -5 38 -12z m10 -131 c4 -37
-13 -57 -50 -57 -24 0 -32 6 -41 30 -8 21 -18 30 -34 30 -14 0 -23 6 -23 15 0
13 13 15 73 13 71 -3 72 -3 75 -31z m2 -81 c0 -7 -9 -16 -20 -19 -12 -3 -20
-14 -20 -27 0 -13 8 -24 20 -27 11 -3 20 -12 20 -20 0 -8 -6 -13 -12 -10 -7 2
-39 13 -70 23 -79 24 -77 44 5 71 77 26 77 26 77 9z m5062 -158 c6 6 17 12 23
12 5 0 3 -5 -5 -10 -12 -7 -8 -10 15 -10 23 0 26 -3 17 -12 -10 -10 -17 -10
-32 0 -13 8 -21 8 -25 1 -5 -7 -11 -6 -21 2 -7 6 -11 16 -8 21 4 6 10 5 15 -3
6 -11 11 -11 21 -1z"/>
<path d="M6785 4951 c-3 -16 -12 -35 -20 -41 -8 -6 -12 -17 -9 -25 3 -7 1 -29
-4 -49 -6 -20 -7 -36 -2 -36 9 0 20 36 20 71 0 14 4 29 9 35 10 10 25 74 18
74 -3 0 -8 -13 -12 -29z"/>
<path d="M7180 4906 c0 -8 -3 -21 -6 -30 -3 -9 -2 -16 3 -16 5 0 10 14 11 30
1 17 0 30 -3 30 -3 0 -5 -6 -5 -14z"/>
<path d="M7150 4793 c-7 -21 -24 -48 -38 -60 -18 -15 -22 -23 -12 -23 25 0 38
14 56 55 9 22 23 45 33 52 14 11 14 12 -6 13 -16 0 -24 -9 -33 -37z"/>
<path d="M6748 4763 c7 -3 16 -2 19 1 4 3 -2 6 -13 5 -11 0 -14 -3 -6 -6z"/>
<path d="M4976 4424 c-9 -28 -42 -37 -61 -17 -8 8 -15 11 -15 6 0 -16 24 -33
47 -33 23 0 47 32 40 53 -2 7 -7 2 -11 -9z"/>
<path d="M5092 4420 c-14 -22 -42 -26 -60 -8 -7 7 -12 8 -12 2 0 -18 24 -34
51 -34 21 0 28 6 33 26 9 33 4 39 -12 14z"/>
<path d="M4849 4414 c-8 -10 -23 -14 -41 -12 -22 4 -25 2 -17 -9 19 -22 66
-16 72 9 8 28 3 33 -14 12z"/>
<path d="M4876 4247 c3 -10 9 -15 12 -12 3 3 0 11 -7 18 -10 9 -11 8 -5 -6z"/>
<path d="M4760 4210 c-12 -7 -10 -9 7 -7 12 0 19 5 17 9 -6 10 -6 10 -24 -2z"/>
<path d="M7317 4244 c-8 -8 1 -24 14 -24 5 0 9 7 9 15 0 15 -12 20 -23 9z"/>
<path d="M7067 4245 c-8 -18 11 -31 25 -17 11 11 3 32 -12 32 -4 0 -10 -7 -13
-15z"/>
<path d="M7182 4244 c4 -21 22 -23 26 -1 2 10 -3 17 -13 17 -10 0 -15 -6 -13
-16z"/>
<path d="M5088 3978 c9 -9 15 -9 24 0 9 9 7 12 -12 12 -19 0 -21 -3 -12 -12z"/>
<path d="M5770 3980 c0 -5 5 -10 10 -10 6 0 10 5 10 10 0 6 -4 10 -10 10 -5 0
-10 -4 -10 -10z"/>
<path d="M4555 3481 c-6 -11 9 -23 19 -14 9 9 7 23 -3 23 -6 0 -12 -4 -16 -9z"/>
<path d="M4292 3484 c4 -21 22 -23 26 -1 2 10 -3 17 -13 17 -10 0 -15 -6 -13
-16z"/>
<path d="M5255 3376 c-38 -17 -90 -72 -104 -109 -31 -82 3 -189 76 -241 128
-90 303 4 303 164 0 80 -54 163 -123 189 -39 15 -116 13 -152 -3z"/>
<path d="M5950 3480 c0 -5 5 -10 10 -10 6 0 10 5 10 10 0 6 -4 10 -10 10 -5 0
-10 -4 -10 -10z"/>
<path d="M3920 3080 c0 -5 5 -10 10 -10 6 0 10 5 10 10 0 6 -4 10 -10 10 -5 0
-10 -4 -10 -10z"/>
<path d="M7710 2849 c-22 -18 -22 -19 -3 -10 12 6 25 16 28 21 9 15 3 12 -25
-11z"/>
<path d="M4051 2844 c0 -11 3 -14 6 -6 3 7 2 16 -1 19 -3 4 -6 -2 -5 -13z"/>
<path d="M4220 2839 c0 -5 5 -7 10 -4 6 3 10 8 10 11 0 2 -4 4 -10 4 -5 0 -10
-5 -10 -11z"/>
<path d="M4095 2500 c-3 -5 -1 -10 4 -10 6 0 11 5 11 10 0 6 -2 10 -4 10 -3 0
-8 -4 -11 -10z"/>
<path d="M4971 2404 c0 -11 3 -14 6 -6 3 7 2 16 -1 19 -3 4 -6 -2 -5 -13z"/>
<path d="M191 2361 c-17 -11 -7 -45 12 -39 13 5 23 48 10 48 -4 0 -14 -4 -22
-9z"/>
<path d="M5088 2308 c9 -9 15 -9 24 0 9 9 7 12 -12 12 -19 0 -21 -3 -12 -12z"/>
<path d="M8695 2200 c-3 -5 -1 -10 4 -10 6 0 11 5 11 10 0 6 -2 10 -4 10 -3 0
-8 -4 -11 -10z"/>
<path d="M8660 2109 c0 -5 5 -7 10 -4 6 3 10 8 10 11 0 2 -4 4 -10 4 -5 0 -10
-5 -10 -11z"/>
<path d="M8686 2095 c-11 -8 -15 -15 -9 -15 6 0 16 7 23 15 16 19 11 19 -14 0z"/>
<path d="M8652 2061 c-10 -6 -9 -11 4 -22 16 -12 17 -12 11 3 -3 9 -1 19 6 22
7 2 8 5 2 5 -5 0 -16 -3 -23 -8z"/>
<path d="M8730 1870 c0 -5 5 -10 10 -10 6 0 10 5 10 10 0 6 -4 10 -10 10 -5 0
-10 -4 -10 -10z"/>
<path d="M191 2161 c-15 -10 -8 -41 9 -41 15 0 25 29 14 40 -5 5 -15 5 -23 1z"/>
<path d="M193 1753 c-20 -8 -15 -31 8 -38 28 -9 69 2 69 19 0 22 -44 33 -77
19z"/>
<path d="M191 1641 c-17 -11 -7 -45 12 -39 13 5 23 48 10 48 -4 0 -14 -4 -22
-9z"/>
<path d="M210 1510 c15 -14 26 -18 28 -10 5 14 3 16 -28 24 l-25 7 25 -21z"/>
<path d="M210 1410 c0 -5 5 -10 10 -10 6 0 10 5 10 10 0 6 -4 10 -10 10 -5 0
-10 -4 -10 -10z"/>
<path d="M214 975 c-4 -9 -2 -21 4 -27 16 -16 47 -5 47 17 0 26 -42 34 -51 10z"/>
<path d="M210 656 c0 -8 5 -18 10 -21 6 -3 10 3 10 14 0 12 -4 21 -10 21 -5 0
-10 -6 -10 -14z"/>
<path d="M217 563 c-17 -16 -5 -33 23 -33 32 0 37 9 18 28 -13 13 -31 16 -41
5z"/>
<path d="M214 445 c-8 -20 4 -35 27 -35 24 0 37 29 18 41 -21 13 -39 11 -45
-6z"/>
<path d="M210 331 c0 -15 29 -33 45 -27 28 10 17 36 -15 36 -16 0 -30 -4 -30
-9z"/>
<path d="M208 223 c-24 -6 -23 -19 2 -26 15 -4 20 0 20 14 0 10 -1 18 -2 18
-2 -1 -11 -3 -20 -6z"/>
</g>
</svg>
